<svg id="Layer_2" data-name="Layer 2" xmlns="http://www.w3.org/2000/svg" viewBox="0 0 647.74 82.11"><defs><style>.cls-1{fill:#005f7f;}.cls-2{fill:#693;}.cls-3{fill:#23552e;}</style></defs><title>top_bkgd</title><path class="cls-1" d="M539.91,5.33s69.66-.67,107.8-2.42,118-10.44,118-10.44,8.6.83-42.72,1.83S576.45-7,539.4-7.51"/><path class="cls-2" d="M-25.81,88.92S51.9,84.58,94.42,78.68s131.5-31.1,131.5-31.1,9.61,1.8-47.64,6.3S14.76,56-26.58,56.18"/><path class="cls-2" d="M446.76,10.33S516.4,8.17,554.51,5.22,672.36-10.33,672.36-10.33s8.61.9-42.69,3.14S483.11-6.13,446.06-6"/><path class="cls-3" d="M-26.58,127.4S44.34,121.14,94.19,110c53.12-11.88,93-27.16,127.75-39.48,36-12.78,61.29-19.65,76.25-25.56s35.71-11.57,58.54-17.48,41.73-13,60.63-14.17,71.26-5.91,81.5-5.91S532.32-6.79,532.32-6.79L418.94-4.56s-22.84,7.61-78,23-70.1,16.08-115.06,29.18c-50,14.57-98.55,21.71-130.53,28.66s-113,11.89-121.2,12.68"/><path class="cls-1" d="M-26.58,29.47s60.39,12,75.87,14.71,46.19,8.25,77,10.06c10.05.59,30.58,1.1,30.58,1.1s-81.67,6-115.74,5-67.74-4.12-67.74-4.12Z"/><path class="cls-1" d="M355.87-3.34l64.65-1.25S349.08,18.52,335.74,22.5c-17.47,5.21-140.88,32.84-140.88,32.84s82.87-26.51,113.4-38.65C335.14,6,355.87-3.34,355.87-3.34Z"/></svg>