<svg xmlns="http://www.w3.org/2000/svg" viewBox="0 0 500.92 147.02"><defs><style>.cls-1,.cls-4{fill:#006080;}.cls-1,.cls-3{fill-rule:evenodd;}.cls-2,.cls-3{fill:#231f20;}</style></defs><title>Artboard 1</title><g id="Isolation_Mode" data-name="Isolation Mode"><path class="cls-1" d="M3.3,62.13,46.73,2.87l20,26.2C63.8,31.58,49.66,47.8,44,47.8c-5,0-13.25-12.1-17.25-12.1-.52,0-1.35.45-1.35,1.09C25.43,39.91,41,50.54,41,59.45a18.19,18.19,0,0,1-1.47,6.85c-4.58,8.82-9,17.67-12,26.56V62.13Zm63.12,0v40.73H27.49v-1.45c0-.32,1.94-2.4,2.66-3.62,1.87-3.17,4-7,5.66-10.3,2.38-4.88,4.93-9.95,7.55-14.94.1-.21,1-2.35,1.89-2.35,1.61,0,15,29.23,17.32,29.23,1,0,1-1.11,1-1.55,0-13.18-12.88-29.74-12.88-36.95,0-10.33,7.92-17.23,18.74-28.45L92.1,62.15l-25.68,0ZM48,36.54a2.17,2.17,0,0,1,2,2.32C50,41,48,45.43,44.7,45.43a2.16,2.16,0,0,1-2-2.26c0-2.22,2.08-6.63,5.34-6.63Z"/><polygon class="cls-2" points="79.13 102.74 87.64 102.74 87.64 73.05 95.53 73.05 95.53 66.51 71.24 66.51 71.24 73.05 79.13 73.05 79.13 102.74 79.13 102.74"/><path class="cls-2" d="M96.91,102.74h7.34V89.18c0-3.11.84-5.16,3.2-5.16,1.49,0,2.84.79,2.84,3.81v14.91h7.34V86.9c0-4.83-1.77-8.73-7.11-8.73-2.65,0-5.34,1.25-6.18,4h-.09V67.9H96.91v34.84Z"/><path class="cls-3" d="M127.29,88.57c0-1.3,0-5.94,3.77-5.94,3,0,3.81,2.88,3.81,5.94Zm14.27,2.23c0-12.63-8.32-12.63-10.5-12.63-6.92,0-10.73,5.9-10.73,12.4,0,7.39,3.76,12.54,12.26,12.54a22.8,22.8,0,0,0,7.66-1.39l-.13-5.53a15,15,0,0,1-6.83,1.91c-4.14,0-6-2.65-6-5.53h14.27V90.8Z"/><polygon class="cls-2" points="148.37 102.74 156.89 102.74 156.89 73.05 164.78 73.05 164.78 66.51 140.48 66.51 140.48 73.05 148.37 73.05 148.37 102.74 148.37 102.74"/><path class="cls-2" d="M164.08,102.74h7.34V91.92c0-3.53.51-7.25,4.78-7.25a10,10,0,0,1,2.46.28V78.17h-1.07c-4.22,0-5.24,2.14-6.73,4.74h-.09c-.05-1.44-.14-2.93-.19-4.37h-6.69a46.44,46.44,0,0,1,.19,5.06v19.14Z"/><path class="cls-3" d="M181.5,85.14A12.47,12.47,0,0,1,188.24,83c1.07,0,4.5,0,4.5,4.65h-2.23c-2.55,0-12,0-12,8.12,0,4.42,3,7.34,7.48,7.34,3.48,0,6.31-2.23,6.64-3.71h.09l.19,3.34h6.69c-.14-1.62-.19-3.25-.19-6.83V87.09c0-5.39-2-8.92-10.45-8.92a28.77,28.77,0,0,0-7.8,1.53l.32,5.44Zm11.24,7.34c0,5.9-3.71,6-4.36,6a2.85,2.85,0,0,1-3.16-3.16c0-4,4.6-4.23,7.52-4.23v1.4Z"/><path class="cls-3" d="M202.87,102.74h7.34V78.54h-7.34v24.2Zm0-28.33h7.34V67.9h-7.34v6.51Z"/><path class="cls-2" d="M227.12,102.74h7.34V86.9c0-4.83-1.76-8.73-7.1-8.73-3.86,0-5.72,1.76-6.83,4.41h-.1c0-1.62-.09-3-.18-4h-6.69a46.44,46.44,0,0,1,.19,5.06v19.14h7.33V89.18c0-3.11.84-5.16,3.21-5.16,1.49,0,2.83.79,2.83,3.81v14.91Z"/><path class="cls-3" d="M238,102.74h7.34V78.54H238v24.2Zm0-28.33h7.34V67.9H238v6.51Z"/><path class="cls-2" d="M262.25,102.74h7.34V86.9c0-4.83-1.76-8.73-7.11-8.73-3.85,0-5.71,1.76-6.83,4.41h-.09c0-1.62-.09-3-.18-4h-6.69a47,47,0,0,1,.18,5.06v19.14h7.34V89.18c0-3.11.84-5.16,3.21-5.16,1.48,0,2.83.79,2.83,3.81v14.91Z"/><path class="cls-3" d="M279.91,90.62c0-2.51.18-7.16,3.57-7.16,3,0,3.63,4.37,3.63,7.16,0,3.39-.7,7-3.67,7-3.25,0-3.53-5.07-3.53-7ZM294.45,84c0-3.07.09-4.32.18-5.44h-7l-.18,3.86h-.09a6.65,6.65,0,0,0-6.51-4.23c-5.53,0-8.59,4.78-8.59,12.5,0,9.1,4.32,12.07,8.55,12.07a6.59,6.59,0,0,0,6.36-4.27h.09c0,5-.23,9.29-6,9.29a17.19,17.19,0,0,1-7.61-2.14l-.24,6a30.32,30.32,0,0,0,8.74,1.44c12.21,0,12.31-9.71,12.31-13.24V84Z"/><path class="cls-2" d="M318.71,67.13a35.69,35.69,0,0,0-8.51-1.25c-12.15,0-12.56,9.24-12.56,10.33,0,12.93,14.27,9.51,14.27,16.51,0,3-2.59,4.31-5.29,4.31-3.17,0-5.4-1.24-7.94-2.23l-.47,7.06a34.73,34.73,0,0,0,9.76,1.51c7.21,0,12.67-4.16,12.67-11,0-12.87-14.28-9.81-14.28-16.4,0-2.7,2.08-3.95,4.83-3.95a17.23,17.23,0,0,1,7.16,1.87l.36-6.75Z"/><path class="cls-3" d="M323,90.57c0,7.34,3.94,12.54,11.38,12.54s11.38-5.2,11.38-12.54-3.95-12.4-11.38-12.4S323,83.33,323,90.57Zm7.61,0c0-4.74,1.21-7.38,3.77-7.38s3.76,2.64,3.76,7.38-1.21,7.53-3.76,7.53-3.77-2.79-3.77-7.53Z"/><path class="cls-2" d="M369.19,78.54h-7.34V92.11c0,3.11-.84,5.15-3.21,5.15-1.48,0-2.83-.79-2.83-3.81V78.54h-7.34V94.38c0,4.83,1.77,8.73,7.11,8.73,3.85,0,5.71-1.76,6.83-4.41h.09c0,1.63.09,3,.18,4h6.69a46.86,46.86,0,0,1-.18-5.06V78.54Z"/><path class="cls-2" d="M372.49,102.74h7.34V91.92c0-3.53.51-7.25,4.78-7.25a10,10,0,0,1,2.47.28V78.17H386c-4.23,0-5.25,2.14-6.74,4.74h-.09c-.05-1.44-.14-2.93-.19-4.37H372.3a46.44,46.44,0,0,1,.19,5.06v19.14Z"/><path class="cls-2" d="M404.78,96.56a11.89,11.89,0,0,1-4.27,1.07c-2.79,0-5.95-1.62-5.95-6.73,0-.93,0-7.06,5.57-7.06a12,12,0,0,1,4.28,1l.37-5.53c-2.14-.56-3.44-1.16-5.85-1.16-7.71,0-12,5.29-12,12.73,0,4.41,2.09,12.21,11.43,12.21a25.94,25.94,0,0,0,6.64-1l-.23-5.53Z"/><path class="cls-3" d="M413.1,88.57c0-1.3,0-5.94,3.76-5.94,3,0,3.81,2.88,3.81,5.94Zm14.26,2.23c0-12.63-8.31-12.63-10.5-12.63-6.92,0-10.73,5.9-10.73,12.4,0,7.39,3.76,12.54,12.27,12.54a22.89,22.89,0,0,0,7.66-1.39l-.14-5.53a15,15,0,0,1-6.83,1.91c-4.13,0-6-2.65-6-5.53h14.26V90.8Z"/><polygon class="cls-2" points="426.94 107.85 432.43 107.85 436.14 95.78 429.18 95.78 426.94 107.85 426.94 107.85"/><polygon class="cls-2" points="439.81 102.74 447.43 102.74 447.43 70.32 439.81 70.32 439.81 102.74 439.81 102.74"/><path class="cls-2" d="M464.63,102.74H472V86.9c0-4.83-1.77-8.73-7.11-8.73-3.86,0-5.72,1.76-6.83,4.41h-.09c0-1.62-.1-3-.19-4h-6.69a46.44,46.44,0,0,1,.19,5.06v19.14h7.34V89.18c0-3.11.83-5.16,3.2-5.16,1.49,0,2.84.79,2.84,3.81v14.91Z"/><path class="cls-2" d="M492.13,96.56a11.89,11.89,0,0,1-4.27,1.07c-2.79,0-5.95-1.62-5.95-6.73,0-.93,0-7.06,5.58-7.06a12,12,0,0,1,4.27,1l.37-5.53c-2.14-.56-3.44-1.16-5.85-1.16-7.71,0-12,5.29-12,12.73,0,4.41,2.09,12.21,11.43,12.21a25.94,25.94,0,0,0,6.64-1l-.23-5.53Z"/><polygon class="cls-2" points="494.23 102.74 500.92 102.74 500.92 95.78 494.23 95.78 494.23 102.74 494.23 102.74"/><path class="cls-4" d="M90.12,124a41.14,41.14,0,0,1,3.38-8.57l2-.22a50.15,50.15,0,0,0-2.13,8.43Zm5.36,0a41.83,41.83,0,0,1,3.35-8.57l2-.22a51.15,51.15,0,0,0-2.12,8.43Z"/><path class="cls-4" d="M104.49,139.82l.45-24.26h3.78L108.23,128c-.17,2.56-.41,4.71-.65,7.06h.11a63.14,63.14,0,0,1,2.16-6.73l4.81-12.78H118L117.78,128c-.07,2.49-.25,4.68-.46,7.1h.09c.62-2.32,1.25-4.56,2-6.86l4.31-12.65h3.6l-8.87,24.26h-3.79l0-10.66c0-2.3.17-4.74.39-7.09h-.07c-.79,2.35-1.52,4.79-2.69,7.53l-4.13,10.22Z"/><path class="cls-4" d="M135.1,139a10.31,10.31,0,0,1-4.64,1c-4,0-5.49-2.84-5.49-6.4,0-4.95,2.75-11.63,8.08-11.63,2.92,0,4.16,2.19,4.18,4.42,0,4.55-3.8,6.35-8.64,6.27a6.74,6.74,0,0,0,.27,2.71,2.53,2.53,0,0,0,2.55,1.72,6.89,6.89,0,0,0,3.36-.91Zm-2.55-14c-1.45,0-2.86,1.81-3.57,4.91,2.55.05,5-.88,5-3.15C134,125.63,133.48,125,132.55,125Z"/><path class="cls-4" d="M158.42,114.91l-3.59,19c-.36,1.89-.7,4.2-.84,5.93h-3l.21-2.64h-.07a5.12,5.12,0,0,1-4.2,2.93c-2.41,0-3.77-2.14-3.77-5.37,0-6.06,3.21-12.73,8.5-12.73a3.07,3.07,0,0,1,1.71.51l1.44-7.61Zm-5.64,10.52a1.62,1.62,0,0,0-1.33-.59c-2.91,0-4.68,6-4.68,9.23,0,1.81.44,3,1.68,3s2.4-1.46,3-4Z"/><path class="cls-4" d="M168.06,139a10.31,10.31,0,0,1-4.64,1c-4,0-5.49-2.84-5.49-6.4,0-4.95,2.74-11.63,8.07-11.63,2.93,0,4.17,2.19,4.19,4.42,0,4.55-3.8,6.35-8.64,6.27a6.74,6.74,0,0,0,.27,2.71,2.53,2.53,0,0,0,2.55,1.72,6.89,6.89,0,0,0,3.36-.91Zm-2.55-14c-1.45,0-2.87,1.81-3.57,4.91,2.55.05,5-.88,5-3.15C166.91,125.63,166.44,125,165.51,125Z"/><path class="cls-4" d="M175.86,122.3l0,8.87c-.07,2.18,0,3.19-.15,4.68h.1c.43-1.44.84-2.54,1.55-4.47l3.5-9.08h3.65l-7.82,17.52h-3.6l-1-17.52Z"/><path class="cls-4" d="M193.73,139a10.24,10.24,0,0,1-4.63,1c-4,0-5.49-2.84-5.49-6.4,0-4.95,2.74-11.63,8.07-11.63,2.93,0,4.17,2.19,4.19,4.42,0,4.55-3.8,6.35-8.64,6.27a6.74,6.74,0,0,0,.27,2.71,2.53,2.53,0,0,0,2.55,1.72,6.89,6.89,0,0,0,3.36-.91Zm-2.54-14c-1.45,0-2.87,1.81-3.57,4.91,2.55.05,5-.88,5-3.15C192.59,125.63,192.12,125,191.19,125Z"/><path class="cls-4" d="M196,139.82l4.72-24.91h3.66l-4.74,24.91Z"/><path class="cls-4" d="M216.67,128c0,5-2.59,12.14-7.94,12.14-3.88,0-4.86-3.19-4.86-6,0-5.38,2.91-12.1,8.19-12.1C216.08,122,216.67,125.56,216.67,128Zm-9.18,5.91c0,1.59.1,3.38,1.69,3.38,2.61,0,3.87-6.62,3.87-9.67,0-1.46-.3-2.73-1.59-2.73C209.09,124.86,207.47,130.68,207.49,133.88Z"/><path class="cls-4" d="M216.15,146.73l3.51-18.47c.42-2.26.71-4.34,1-6h3.13l-.31,2.68h.08a5.56,5.56,0,0,1,4.43-3c2.88,0,3.51,2.58,3.51,5.24,0,5.66-3,12.86-8.17,12.86a4.45,4.45,0,0,1-2.14-.48h-.09l-1.32,7.1Zm5.46-9.93a2.37,2.37,0,0,0,1.45.52c3.31,0,4.7-6.88,4.7-9.49,0-1.41-.22-2.69-1.48-2.69-1.41,0-2.92,2.27-3.42,4.92Z"/><path class="cls-4" d="M236.17,146.73l3.51-18.47c.42-2.26.71-4.34,1-6h3.13l-.31,2.68h.07a5.59,5.59,0,0,1,4.44-3c2.87,0,3.51,2.58,3.51,5.24,0,5.66-3,12.86-8.17,12.86a4.45,4.45,0,0,1-2.14-.48h-.09l-1.33,7.1Zm5.46-9.93a2.34,2.34,0,0,0,1.45.52c3.31,0,4.7-6.88,4.7-9.49,0-1.41-.22-2.69-1.48-2.69-1.41,0-2.92,2.27-3.42,4.92Z"/><path class="cls-4" d="M263.19,139a10.31,10.31,0,0,1-4.64,1c-4,0-5.49-2.84-5.49-6.4,0-4.95,2.75-11.63,8.07-11.63,2.93,0,4.17,2.19,4.19,4.42,0,4.55-3.8,6.35-8.64,6.27a6.74,6.74,0,0,0,.27,2.71,2.53,2.53,0,0,0,2.55,1.72,6.89,6.89,0,0,0,3.36-.91Zm-2.55-14c-1.45,0-2.86,1.81-3.57,4.91,2.55.05,5-.88,5-3.15C262,125.63,261.57,125,260.64,125Z"/><path class="cls-4" d="M278.93,128c0,5-2.6,12.14-7.95,12.14-3.88,0-4.86-3.19-4.86-6,0-5.38,2.92-12.1,8.19-12.1C278.33,122,278.93,125.56,278.93,128Zm-9.19,5.91c0,1.59.1,3.38,1.69,3.38,2.61,0,3.87-6.62,3.87-9.67,0-1.46-.3-2.73-1.59-2.73C271.34,124.86,269.72,130.68,269.74,133.88Z"/><path class="cls-4" d="M278.4,146.73l3.51-18.47c.43-2.26.71-4.34,1-6H286l-.31,2.68h.07a5.56,5.56,0,0,1,4.43-3c2.88,0,3.52,2.58,3.52,5.24,0,5.66-3,12.86-8.18,12.86a4.44,4.44,0,0,1-2.13-.48h-.1l-1.32,7.1Zm5.46-9.93a2.39,2.39,0,0,0,1.45.52c3.31,0,4.7-6.88,4.7-9.49,0-1.41-.22-2.69-1.48-2.69s-2.92,2.27-3.42,4.92Z"/><path class="cls-4" d="M294.54,139.82l4.72-24.91h3.65l-4.73,24.91Z"/><path class="cls-4" d="M312.55,139a10.31,10.31,0,0,1-4.64,1c-4,0-5.49-2.84-5.49-6.4,0-4.95,2.75-11.63,8.08-11.63,2.92,0,4.16,2.19,4.18,4.42,0,4.55-3.79,6.35-8.64,6.27a6.59,6.59,0,0,0,.28,2.71,2.52,2.52,0,0,0,2.54,1.72,6.89,6.89,0,0,0,3.36-.91ZM310,125c-1.46,0-2.87,1.81-3.58,4.91,2.55.05,5-.88,5-3.15C311.41,125.63,310.94,125,310,125Z"/><path class="cls-4" d="M312.22,144.34a59,59,0,0,0,3.81-9.05l4.07-.36a47.17,47.17,0,0,1-5.14,9.12Z"/><path class="cls-4" d="M327.08,139.82l2.21-11.69c.44-2.27.69-4.28.92-5.83h3.14l-.24,2.49h.07a5.72,5.72,0,0,1,4.73-2.78c2.35,0,3.23,1.72,3.23,3.7a16.13,16.13,0,0,1-.37,3.13l-2.08,11h-3.63l2.09-11.11a10,10,0,0,0,.23-2.1c0-.94-.38-1.57-1.27-1.57-1.32,0-3,2-3.61,5.3l-1.79,9.48Z"/><path class="cls-4" d="M355.68,128c0,5-2.6,12.14-7.95,12.14-3.88,0-4.86-3.19-4.86-6,0-5.38,2.92-12.1,8.19-12.1C355.09,122,355.68,125.56,355.68,128Zm-9.19,5.91c0,1.59.1,3.38,1.69,3.38,2.61,0,3.87-6.62,3.87-9.67,0-1.46-.3-2.73-1.59-2.73C348.09,124.86,346.47,130.68,346.49,133.88Z"/><path class="cls-4" d="M364.73,117.63l-.92,4.67h3.3l-.5,2.65H363.3l-1.69,9a11.92,11.92,0,0,0-.2,1.81c0,1,.46,1.41,1.3,1.41a6.24,6.24,0,0,0,1.14-.07l-.39,2.76a8.62,8.62,0,0,1-2.31.26c-2.32,0-3.52-1.31-3.52-3.37A14.23,14.23,0,0,1,358,134l1.71-9H357.6l.48-2.65h2.1l.71-3.7Z"/><path class="cls-4" d="M378.19,122.3,375,139.12c-.6,3.14-1.12,4.6-1.77,5.64A5.1,5.1,0,0,1,368.7,147a8,8,0,0,1-1.76-.18l.37-2.79a8.24,8.24,0,0,0,1,.08c1.28,0,2.25-.67,3-4.29l3.32-17.54Zm-2.94-4.46a2.33,2.33,0,0,1,2.16-2.36,1.78,1.78,0,0,1,1.81,2.06A2.26,2.26,0,0,1,377,119.9C375.76,119.9,375.2,119,375.25,117.84Z"/><path class="cls-4" d="M393,122.3,390.76,134c-.44,2.28-.67,4.29-.86,5.84h-3.18l.19-2.52-.07,0a5.49,5.49,0,0,1-4.62,2.85c-2.22,0-3.15-1.72-3.15-3.85a16.31,16.31,0,0,1,.36-3.24l2-10.72h3.64l-2,10.43a14.72,14.72,0,0,0-.33,2.79c0,.94.39,1.58,1.28,1.58,1.39,0,2.85-1.9,3.38-4.66l1.89-10.14Z"/><path class="cls-4" d="M393.64,136.49a5.2,5.2,0,0,0,2.77.76,2.28,2.28,0,0,0,2.39-2.4,3.67,3.67,0,0,0-1.74-3,5.79,5.79,0,0,1-2.24-4.28c0-3.09,2.36-5.59,6-5.59a5.94,5.94,0,0,1,3,.67l-.85,2.7a4.31,4.31,0,0,0-2.06-.54,2.27,2.27,0,0,0-2.54,2.28,3.15,3.15,0,0,0,1.45,2.46,6.09,6.09,0,0,1,2.55,4.6c0,3.82-2.58,5.86-6.26,5.86a6.63,6.63,0,0,1-3.47-.91Z"/><path class="cls-4" d="M412.35,117.63l-.92,4.67h3.3l-.5,2.65h-3.32l-1.68,9a11.92,11.92,0,0,0-.2,1.81c0,1,.46,1.41,1.3,1.41a6.24,6.24,0,0,0,1.14-.07l-.39,2.76a8.62,8.62,0,0,1-2.31.26c-2.32,0-3.53-1.31-3.53-3.37a14.23,14.23,0,0,1,.32-2.74l1.72-9h-2.06l.48-2.65h2.09l.72-3.7Z"/><path class="cls-4" d="M419.17,136.49a5.17,5.17,0,0,0,2.77.76,2.28,2.28,0,0,0,2.39-2.4,3.67,3.67,0,0,0-1.74-3,5.76,5.76,0,0,1-2.24-4.28c0-3.09,2.35-5.59,6-5.59a6,6,0,0,1,3,.67l-.85,2.7a4.31,4.31,0,0,0-2.06-.54,2.28,2.28,0,0,0-2.55,2.28,3.16,3.16,0,0,0,1.46,2.46,6.08,6.08,0,0,1,2.54,4.6c0,3.82-2.57,5.86-6.25,5.86a6.7,6.7,0,0,1-3.48-.91Z"/><path class="cls-4" d="M429.63,139.82l4.72-24.91h3.56l-2.8,14.77h.07c.42-.63.88-1.34,1.22-1.9l3.79-5.48h4l-5.77,7.57,3,9.95h-3.73l-2.07-8-1.17,1.59-1.24,6.46Z"/><path class="cls-4" d="M443,139.82l3.36-17.52H450l-3.35,17.52Zm4.07-22a2.34,2.34,0,0,1,2.17-2.36,1.78,1.78,0,0,1,1.81,2.06,2.26,2.26,0,0,1-2.23,2.36C447.61,119.9,447.05,119,447.09,117.84Z"/><path class="cls-4" d="M450.24,139.82,455,114.91h3.65l-4.73,24.91Z"/><path class="cls-4" d="M457.44,139.82l4.72-24.91h3.65l-4.73,24.91Z"/><path class="cls-4" d="M465,136.49a5.17,5.17,0,0,0,2.77.76,2.28,2.28,0,0,0,2.39-2.4,3.67,3.67,0,0,0-1.74-3,5.76,5.76,0,0,1-2.24-4.28c0-3.09,2.36-5.59,6-5.59a5.94,5.94,0,0,1,3,.67l-.85,2.7a4.31,4.31,0,0,0-2.06-.54,2.27,2.27,0,0,0-2.54,2.28,3.15,3.15,0,0,0,1.45,2.46,6.09,6.09,0,0,1,2.55,4.6c0,3.82-2.58,5.86-6.26,5.86a6.7,6.7,0,0,1-3.48-.91Z"/><path class="cls-4" d="M475.78,137.77a2.73,2.73,0,0,1,2.42-2.67,2.11,2.11,0,0,1,2.19,2.28,2.61,2.61,0,0,1-2.47,2.73A2.13,2.13,0,0,1,475.78,137.77Zm1.71-5.33,2.76-16.88h4.15l-3.72,16.88Z"/><path class="cls-4" d="M490,115.16a43.77,43.77,0,0,1-3.35,8.53l-2,.26a56.21,56.21,0,0,0,2.12-8.46Zm5.33,0a43.77,43.77,0,0,1-3.35,8.53l-2,.26a50.77,50.77,0,0,0,2.13-8.46Z"/></g></svg>