<?xml version="1.0" encoding="utf-8"?>
<!-- Generator: Adobe Illustrator 23.0.6, SVG Export Plug-In . SVG Version: 6.00 Build 0)  -->
<svg version="1.1" id="Layer_1" xmlns="http://www.w3.org/2000/svg" xmlns:xlink="http://www.w3.org/1999/xlink" x="0px" y="0px"
	 viewBox="0 0 605 588" style="enable-background:new 0 0 605 588;" xml:space="preserve">
<style type="text/css">
	.st0{enable-background:new    ;}
</style>
<g>
	<defs>
		<path id="SVGID_1_" d="M302.7,98.2c-23.7,31.2-61.6,45.2-84.6,31.4s-22.4-50.3,1.3-81.4S281,3,304,16.8S326.4,67.1,302.7,98.2
			L302.7,98.2z M619.4-54.4c-18.4,77.8-317.5,264.8-309.8,391.6c5.4,90.1,86.6,179,119.2,243.4s59.5,110.2,83.4,169.4
			c35.4,87.7,25.5,90.3,0,95.3s-166.6-216.6-190.7-254s-48.9-105.5-71.5-116.4s-71.3,81.1-107.3,137.6S52,750.4,23.5,792.3
			c-26.7,39.3-53.4,69.8-71.5,63.5s-37-34.7,23.8-127C3.3,687.2,169,460.2,178.4,369c11.7-113-86.7-180.2-118-212.3
			C13.3,108.4-48,40.8-48,40.8s-1.3-72.2,59.6-27.6S80,81.6,115.1,111c39.7,33.3,78.4,69.8,122.9,67.4c95.9-5.2,147-82,207.2-142.4
			C529.9-48.8,560-72.6,583.6-75.6S625.5-80.5,619.4-54.4z"/>
	</defs>
	<use xlink:href="#SVGID_1_"  style="overflow:visible;fill:#005F7F;"/>
	<clipPath id="SVGID_2_">
		<use xlink:href="#SVGID_1_"  style="overflow:visible;"/>
	</clipPath>
</g>
<g class="st0">
	<defs>
		<path id="SVGID_3_" class="st0" d="M239.4,82c-23.7,31.2-61.6,45.2-84.6,31.4s-22.4-50.3,1.3-81.4s61.6-45.2,84.6-31.4
			S263.1,50.8,239.4,82L239.4,82z M556.1-70.7C537.7,7.2,238.6,194.1,246.2,320.9c5.4,90.1,86.6,179,119.2,243.4
			s59.6,110.2,83.4,169.3c35.4,87.7,25.5,90.3,0,95.3S282.2,612.4,258.2,575s-48.9-105.5-71.5-116.4s-71.3,81-107.3,137.5
			s-90.6,138-119.2,179.9c-26.7,39.3-53.4,69.8-71.5,63.5s-37-34.7,23.8-127C-60,671,105.7,443.9,115.2,352.7
			c11.7-113-86.6-180.2-118-212.3C-49.9,92.2-111.3,24.6-111.3,24.6S-112.6-47.6-51.7-3S16.7,65.4,51.8,94.8
			c39.7,33.3,78.4,69.8,122.9,67.4c95.9-5.2,147-82,207.2-142.4C466.6-65,496.7-88.8,520.3-91.8S562.3-96.8,556.1-70.7L556.1-70.7z"
			/>
	</defs>
	<use xlink:href="#SVGID_3_"  style="overflow:visible;fill:#799A48;"/>
	<clipPath id="SVGID_4_">
		<use xlink:href="#SVGID_3_"  style="overflow:visible;"/>
	</clipPath>
</g>
<g>
	<defs>
		<path id="SVGID_5_" d="M260.5,106.6c-19.6,33.9-55.3,52.7-79.9,41.9s-28.6-47-9.1-80.9s55.3-52.7,79.9-41.9
			S280.1,72.7,260.5,106.6z M297.7,342.8c16.8,88.7,108.7,166.5,149.2,226.3S520,670.8,551.2,726.4c46.3,82.5,36.8,86.4,12.1,94.5
			S370.5,627.3,341.9,593.2s-62-98.4-85.7-106.4s-60.4,89.5-88.9,150.1S94.9,785.4,71.9,830.6c-21.5,42.4-44.1,76-62.8,72.1
			s-41.1-29.7,7.5-129C38.5,728.9,174,482.6,171.8,391C169,277.5,62.9,223.3,27.8,195.5C-25.1,153.6-94.6,94.4-94.6,94.4
			S-105,22.9-39,59.4s76.6,59.1,115.1,83.8c43.7,28,86.6,59.3,130.5,51.2C301.1,177,342,94.3,394,26.8
			c73.2-94.9,100.1-122.3,123.1-128.3s41-10.2,38.2,16.5C546.9-5.5,274,218,297.7,342.8L297.7,342.8z"/>
	</defs>
	<use xlink:href="#SVGID_5_"  style="overflow:visible;fill:#005F7F;enable-background:new    ;"/>
	<clipPath id="SVGID_6_">
		<use xlink:href="#SVGID_5_"  style="overflow:visible;enable-background:new    ;"/>
	</clipPath>
</g>
<g class="st0">
	<defs>
		<path id="SVGID_7_" class="st0" d="M260.5,106.6c-19.6,33.9-55.3,52.7-79.9,41.9s-28.6-47-9.1-80.9s55.3-52.7,79.9-41.9
			S280.1,72.7,260.5,106.6z M297.7,342.8c16.8,88.7,108.7,166.5,149.2,226.3S520,670.8,551.2,726.4c46.3,82.5,36.8,86.4,12.1,94.5
			S370.5,627.3,341.9,593.2s-62-98.4-85.7-106.4s-60.4,89.5-88.9,150.1S94.9,785.4,71.9,830.6c-21.5,42.4-44.1,76-62.8,72.1
			s-41.1-29.7,7.5-129C38.5,728.9,174,482.6,171.8,391C169,277.5,62.9,223.3,27.8,195.5C-25.1,153.6-94.6,94.4-94.6,94.4
			S-105,22.9-39,59.4s76.6,59.1,115.1,83.8c43.7,28,86.6,59.3,130.5,51.2C301.1,177,342,94.3,394,26.8
			c73.2-94.9,100.1-122.3,123.1-128.3s41-10.2,38.2,16.5C546.9-5.5,274,218,297.7,342.8L297.7,342.8z"/>
	</defs>
	<use xlink:href="#SVGID_7_"  style="overflow:visible;fill:#23552E;"/>
	<clipPath id="SVGID_8_">
		<use xlink:href="#SVGID_7_"  style="overflow:visible;"/>
	</clipPath>
</g>
</svg>
