<?xml version="1.0" encoding="utf-8"?>
<!-- Generator: Adobe Illustrator 23.0.6, SVG Export Plug-In . SVG Version: 6.00 Build 0)  -->
<svg version="1.1" id="Layer_1" xmlns="http://www.w3.org/2000/svg" xmlns:xlink="http://www.w3.org/1999/xlink" x="0px" y="0px"
	 viewBox="0 0 608 585.7" style="enable-background:new 0 0 608 585.7;" xml:space="preserve">
<style type="text/css">
	.st0{clip-path:url(#SVGID_2_);}
	.st1{clip-path:url(#SVGID_4_);}
	.st2{clip-path:url(#SVGID_6_);}
	.st3{clip-path:url(#SVGID_8_);}
	.st4{clip-path:url(#SVGID_10_);}
</style>
<title>TTSman</title>
<g>
	<defs>
		<path id="SVGID_1_" d="M302.7,103c-23.7,31.2-61.6,45.2-84.6,31.4s-22.4-50.3,1.3-81.4S281,7.7,304,21.6S326.4,71.8,302.7,103
			L302.7,103z M619.4-49.7c-18.4,77.8-317.5,264.8-309.8,391.6c5.4,90.1,86.6,179,119.2,243.4s59.5,110.2,83.4,169.4
			c35.4,87.7,25.5,90.3,0,95.3S345.5,633.4,321.4,596s-48.9-105.5-71.5-116.4s-71.3,81.1-107.3,137.6S52,755.1,23.5,797.1
			c-26.7,39.3-53.4,69.8-71.5,63.5s-37-34.7,23.8-127C3.3,692,169,464.9,178.4,373.7c11.7-113-86.7-180.2-118-212.3
			C13.3,113.1-48,45.6-48,45.6S-49.3-26.6,11.6,18S80,86.4,115.1,115.7c39.7,33.3,78.4,69.8,122.9,67.4c95.9-5.2,147-82,207.2-142.4
			C529.9-44,560-67.8,583.6-70.8C607.2-73.9,625.5-75.8,619.4-49.7z"/>
	</defs>
	<clipPath id="SVGID_2_">
		<use xlink:href="#SVGID_1_"  style="overflow:visible;"/>
	</clipPath>
	<g class="st0">
		
			<image style="overflow:visible;enable-background:new    ;" width="788" height="773" xlink:href="461A26BE.png"  transform="matrix(1.1797 0 0 1.4964 -339.1575 -225.687)">
		</image>
	</g>
</g>
<g>
	<defs>
		<path id="SVGID_3_" d="M239.4,86.7c-23.7,31.2-61.6,45.2-84.6,31.4s-22.4-50.3,1.3-81.4s61.6-45.2,84.6-31.4
			S263.1,55.6,239.4,86.7L239.4,86.7z M556.1-65.9c-18.4,77.8-317.5,264.8-309.9,391.6c5.4,90.1,86.6,179,119.2,243.4
			s59.6,110.2,83.4,169.3c35.4,87.7,25.5,90.3,0,95.3s-166.6-216.6-190.7-254s-48.9-105.5-71.5-116.4s-71.3,81-107.3,137.5
			s-90.6,138-119.2,179.9c-26.7,39.3-53.4,69.8-71.5,63.5s-37-34.7,23.8-127c27.4-41.6,193.1-268.7,202.6-359.9
			c11.7-113-86.6-180.2-118-212.3C-49.9,96.9-111.3,29.3-111.3,29.3s-1.3-72.2,59.6-27.6S16.7,70.1,51.8,99.5
			c39.7,33.3,78.4,69.8,122.9,67.4c95.9-5.2,147-82,207.2-142.4C466.6-60.3,496.7-84.1,520.3-87.1S562.3-92,556.1-65.9L556.1-65.9z"
			/>
	</defs>
	<clipPath id="SVGID_4_">
		<use xlink:href="#SVGID_3_"  style="overflow:visible;"/>
	</clipPath>
	<g class="st1">
		
			<image style="overflow:visible;enable-background:new    ;" width="787" height="561" xlink:href="461A26C2.png"  transform="matrix(1.9926 0 0 1.8416 -865.16 -93.8332)">
		</image>
	</g>
</g>
<g>
	<defs>
		<path id="SVGID_5_" d="M260.5,111.4c-19.6,33.9-55.3,52.7-79.9,41.9s-28.6-47-9.1-80.9s55.3-52.7,79.9-41.9
			S280.1,77.5,260.5,111.4z M297.7,347.5c16.8,88.7,108.7,166.5,149.2,226.3S520,675.6,551.2,731.2c46.3,82.5,36.8,86.4,12.1,94.5
			S370.5,632,341.9,598s-62-98.4-85.7-106.4s-60.4,89.5-88.9,150.1S94.9,790.1,71.9,835.3c-21.5,42.4-44.1,76-62.8,72.1
			s-41.1-29.7,7.5-129c21.9-44.7,157.4-291,155.2-382.7C169,282.2,62.9,228,27.8,200.2C-25.1,158.3-94.6,99.1-94.6,99.1
			S-105,27.6-39,64.1s76.6,59.1,115.1,83.8c43.7,28,86.6,59.3,130.5,51.2C301.1,181.7,342,99.1,394,31.6
			C467.2-63.3,494.1-90.8,517.1-96.8s41-10.2,38.2,16.5C546.9-0.8,274,222.7,297.7,347.5L297.7,347.5z"/>
	</defs>
	<clipPath id="SVGID_6_">
		<use xlink:href="#SVGID_5_"  style="overflow:visible;"/>
	</clipPath>
	<g class="st2">
		
			<image style="overflow:visible;enable-background:new    ;" width="796" height="571" xlink:href="461A26C5.png"  transform="matrix(2.179 0 0 2.0198 -994.06 -227.6096)">
		</image>
	</g>
</g>
<g>
	<defs>
		<path id="SVGID_7_" d="M260.5,111.4c-19.6,33.9-55.3,52.7-79.9,41.9s-28.6-47-9.1-80.9s55.3-52.7,79.9-41.9
			S280.1,77.5,260.5,111.4z M297.7,347.5c16.8,88.7,108.7,166.5,149.2,226.3S520,675.6,551.2,731.2c46.3,82.5,36.8,86.4,12.1,94.5
			S370.5,632,341.9,598s-62-98.4-85.7-106.4s-60.4,89.5-88.9,150.1S94.9,790.1,71.9,835.3c-21.5,42.4-44.1,76-62.8,72.1
			s-41.1-29.7,7.5-129c21.9-44.7,157.4-291,155.2-382.7C169,282.2,62.9,228,27.8,200.2C-25.1,158.3-94.6,99.1-94.6,99.1
			S-105,27.6-39,64.1s76.6,59.1,115.1,83.8c43.7,28,86.6,59.3,130.5,51.2C301.1,181.7,342,99.1,394,31.6
			C467.2-63.3,494.1-90.8,517.1-96.8s41-10.2,38.2,16.5C546.9-0.8,274,222.7,297.7,347.5L297.7,347.5z"/>
	</defs>
	<clipPath id="SVGID_8_">
		<use xlink:href="#SVGID_7_"  style="overflow:visible;"/>
	</clipPath>
	<g class="st3">
		
			<image style="overflow:visible;enable-background:new    ;" width="794" height="1422" xlink:href="461A26C6.png"  transform="matrix(0.3443 0 0 0.8005 -649.0486 -137.237)">
		</image>
	</g>
</g>
<g>
	<defs>
		<path id="SVGID_9_" d="M260.5,111.4c-19.6,33.9-55.3,52.7-79.9,41.9s-28.6-47-9.1-80.9s55.3-52.7,79.9-41.9
			S280.1,77.5,260.5,111.4z M297.7,347.5c16.8,88.7,108.7,166.5,149.2,226.3S520,675.6,551.2,731.2c46.3,82.5,36.8,86.4,12.1,94.5
			S370.5,632,341.9,598s-62-98.4-85.7-106.4s-60.4,89.5-88.9,150.1S94.9,790.1,71.9,835.3c-21.5,42.4-44.1,76-62.8,72.1
			s-41.1-29.7,7.5-129c21.9-44.7,157.4-291,155.2-382.7C169,282.2,62.9,228,27.8,200.2C-25.1,158.3-94.6,99.1-94.6,99.1
			S-105,27.6-39,64.1s76.6,59.1,115.1,83.8c43.7,28,86.6,59.3,130.5,51.2C301.1,181.7,342,99.1,394,31.6
			C467.2-63.3,494.1-90.8,517.1-96.8s41-10.2,38.2,16.5C546.9-0.8,274,222.7,297.7,347.5L297.7,347.5z"/>
	</defs>
	<clipPath id="SVGID_10_">
		<use xlink:href="#SVGID_9_"  style="overflow:visible;"/>
	</clipPath>
	<g class="st4">
		
			<image style="overflow:visible;enable-background:new    ;" width="801" height="650" xlink:href="461A26C4.png"  transform="matrix(1.7513 0 0 1.8454 -713.8502 -252.397)">
		</image>
	</g>
</g>
</svg>
