<svg id="Layer_1" data-name="Layer 1" xmlns="http://www.w3.org/2000/svg" viewBox="0 0 605 588"><defs><style>.cls-1,.cls-4{fill:#005f7f;}.cls-2,.cls-4{isolation:isolate;}.cls-3{fill:#799a48;}.cls-5{fill:#23552e;}</style></defs><title>TTSman-02</title><path class="cls-1" d="M302.65,98.24c-23.71,31.16-61.57,45.24-84.56,31.44s-22.41-50.25,1.3-81.41S281,3,304,16.84s22.41,50.24-1.31,81.4ZM619.37-54.42C600.94,23.41,301.87,210.36,309.52,337.2c5.43,90.08,86.61,179,119.17,243.44S488.24,690.84,512.11,750c35.4,87.68,25.54,90.35,0,95.26s-166.63-216.59-190.68-254-48.94-105.46-71.5-116.43-71.29,81.09-107.26,137.6S52,750.36,23.5,792.32C-3.23,831.65-29.91,862.11-48,855.83s-37-34.73,23.83-127C3.26,687.23,169,460.17,178.43,369c11.7-113-86.66-180.2-118-212.27C13.34,108.41-48,40.84-48,40.84s-1.3-72.21,59.56-27.61S80,81.63,115.09,111c39.73,33.32,78.38,69.83,122.92,67.4,95.92-5.23,147-82,207.21-142.38C529.86-48.76,560-72.56,583.62-75.58S625.54-80.5,619.37-54.42Z"/><g class="cls-2"><path class="cls-3" d="M239.38,82c-23.71,31.16-61.57,45.23-84.56,31.43S132.41,63.17,156.12,32,217.69-13.23,240.68.57s22.41,50.25-1.3,81.41ZM556.1-70.67C537.67,7.15,238.59,194.1,246.24,320.94c5.44,90.08,86.62,179,119.18,243.44S425,674.59,448.84,733.73c35.4,87.67,25.54,90.34,0,95.25S282.21,612.39,258.16,575s-48.94-105.46-71.5-116.42-71.29,81-107.26,137.55-90.65,138-119.17,179.93c-26.74,39.33-53.41,69.79-71.51,63.51s-37-34.73,23.84-127C-60,671,105.7,443.91,115.15,352.69c11.71-113-86.65-180.2-117.95-212.26C-49.93,92.15-111.28,24.58-111.28,24.58S-112.57-47.63-51.71-3,16.73,65.4,51.81,94.81c39.74,33.32,78.38,69.83,122.93,67.4,95.92-5.23,147-82,207.21-142.38C466.59-65,496.72-88.81,520.34-91.84s41.93-4.91,35.76,21.17Z"/></g><path class="cls-4" d="M260.54,106.65c-19.56,33.92-55.33,52.69-79.89,41.93s-28.62-47-9.06-80.91S226.91,15,251.47,25.73,280.09,72.73,260.54,106.65Zm37.2,236.14c16.84,88.66,108.68,166.51,149.17,226.29S520,670.82,551.19,726.44c46.26,82.46,36.83,86.36,12.12,94.48S370.48,627.29,341.87,593.23s-62-98.38-85.73-106.39-60.4,89.5-88.89,150.13S94.89,785.36,71.93,830.6c-21.51,42.41-44.1,76-62.84,72.09S-32,873,16.57,773.67C38.49,728.94,174,482.64,171.75,391,169,277.46,62.88,223.28,27.75,195.46-25.14,153.58-94.58,94.36-94.58,94.36S-105,22.86-39,59.36,37.58,118.49,76.13,143.2c43.65,28,86.62,59.29,130.5,51.21C301.09,177,342,94.34,394,26.82,467.2-68.07,494.06-95.51,517.1-101.52s41-10.2,38.15,16.45C546.88-5.53,274,218,297.74,342.79Z"/><g class="cls-2"><path class="cls-5" d="M260.54,106.65c-19.56,33.92-55.33,52.69-79.89,41.93s-28.62-47-9.06-80.91S226.91,15,251.47,25.73,280.09,72.73,260.54,106.65Zm37.2,236.14c16.84,88.66,108.68,166.51,149.17,226.29S520,670.82,551.19,726.44c46.26,82.46,36.83,86.36,12.12,94.48S370.48,627.29,341.87,593.23s-62-98.38-85.73-106.39-60.4,89.5-88.89,150.13S94.89,785.36,71.93,830.6c-21.51,42.41-44.1,76-62.84,72.09S-32,873,16.57,773.67C38.49,728.94,174,482.64,171.75,391,169,277.46,62.88,223.28,27.75,195.46-25.14,153.58-94.58,94.36-94.58,94.36S-105,22.86-39,59.36,37.58,118.49,76.13,143.2c43.65,28,86.62,59.29,130.5,51.21C301.09,177,342,94.34,394,26.82,467.2-68.07,494.06-95.51,517.1-101.52s41-10.2,38.15,16.45C546.88-5.53,274,218,297.74,342.79Z"/></g></svg>