<svg id="Layer_2" data-name="Layer 2" xmlns="http://www.w3.org/2000/svg" viewBox="0 0 836.84 122.04"><defs><style>.cls-1{fill:#fff;}.cls-2{fill:#693;}</style></defs><title>video_wrapper_bkgd-map</title><path class="cls-1" d="M839.29,123.89-70,124.21h0s50.47,4.45,120.8-5.9c141.23-20.78,349-56.21,412-67.71,84.46-15.44,231.72-29.17,376.56-22.82Z"/><path class="cls-2" d="M11,121.62h0c54.77-5.3,284-54,284-54s234.84-42.84,277.68-49S702.73-.5,780.15,0,840,2.08,840,2.08L839.29,78s-70.52-15.81-158.76-19.1c-108.38-4-263.82,6-343.74,17.55-77.93,11.23-223,32.52-258.58,38.2A659.76,659.76,0,0,1,11,121.62Z"/></svg>